<svg width="24" height="24" aria-hidden="true" class="icon_eff5d4"><path fill="currentColor" fill-rule="evenodd" d="M5.887 21a.5.5 0 0 1-.493-.587L6 17H2.595a.5.5 0 0 1-.492-.586l.175-1A.5.5 0 0 1 2.77 15h3.58l1.06-6H4.005a.5.5 0 0 1-.492-.586l.175-1A.5.5 0 0 1 4.18 7h3.58l.637-3.587A.5.5 0 0 1 8.889 3h.984a.5.5 0 0 1 .493.587L9.76 7h6l.637-3.587A.5.5 0 0 1 16.889 3h.984a.5.5 0 0 1 .493.587L17.76 7h3.405a.5.5 0 0 1 .492.586l-.175 1A.5.5 0 0 1 20.99 9h-3.58l-1.06 6h3.405a.5.5 0 0 1 .492.586l-.175 1a.5.5 0 0 1-.492.414H16l-.637 3.587a.5.5 0 0 1-.492.413h-.984a.5.5 0 0 1-.493-.587L14 17H8l-.637 3.587a.5.5 0 0 1-.492.413h-.984ZM9.41 9l-1.06 6h6l1.06-6h-6Z" clip-rule="evenodd"/></svg>