<svg width="24" height="24" fill="none" aria-hidden="true" class="icon_eff5d4"><path fill="currentColor" d="M5.433 21a.12.12 0 0 1-.118-.141L6 17H2.143a.12.12 0 0 1-.118-.14l.308-1.76a.12.12 0 0 1 .118-.1H6.35l1.06-6H3.553a.12.12 0 0 1-.118-.14l.308-1.76A.12.12 0 0 1 3.86 7H7.76l.692-3.901A.12.12 0 0 1 8.57 3h1.757a.12.12 0 0 1 .118.141L9.76 7h6l.692-3.901A.12.12 0 0 1 16.57 3h1.757a.12.12 0 0 1 .118.141L17.76 7h3.857a.12.12 0 0 1 .118.14l-.308 1.76a.12.12 0 0 1-.118.1h-3.9l-.36 2.04H15.05L15.41 9h-6l-1.06 6h2.21v2H8l-.693 3.901A.12.12 0 0 1 7.19 21H5.433Z"/><path fill="currentColor" d="M13.44 12.96a.96.96 0 0 0-.96.96v6.301c0 .53.43.96.96.96h.96a.24.24 0 0 1 .24.24v2.039a.24.24 0 0 0 .4.178l2.446-2.21a.96.96 0 0 1 .643-.247h4.43c.531 0 .96-.43.96-.96V13.92a.96.96 0 0 0-.96-.96h-9.12Z"/></svg>